# xmcd CD database file
#
# Track frame offsets:
#	150
#	16664
#	31148
#	50175
#	66103
#	85409
#	98539
#	112210
#	128250
#	145058
#	160502
#	177153
#	194059
#
# Disc length: 2801 seconds
#
# Revision: 8
# Processed by: cddbd v1.5.2PL0 Copyright (c) Steve Scherf et al.
# Submitted via: CDex 1.81
#
DISCID=a50aef0d
DTITLE=Santiano - Von Liebe, Tod und Freiheit
DYEAR=2015
DGENRE=Country
TTITLE0=Lieder der Freiheit
TTITLE1=Rolling the Woodpile
TTITLE2=Die letzte Fahrt
TTITLE3=Johnny Boy
TTITLE4=Seine Heimat war die See
TTITLE5=Fresenhof
TTITLE6=Joho und ne Buddel voll Rum
TTITLE7=Under Jolly Roger
TTITLE8=Der Alte und das Meer
TTITLE9=Sturmgeboren
TTITLE10=Richtung Freiheit
TTITLE11=Rungholt
TTITLE12=Kinder des Kolumbus
EXTD=YEAR: 2015
EXTT0=
EXTT1=
EXTT2=
EXTT3=
EXTT4=
EXTT5=
EXTT6=
EXTT7=
EXTT8=
EXTT9=
EXTT10=
EXTT11=
EXTT12=
PLAYORDER=
